<?xml version="1.0" encoding="UTF-8" standalone="no"?>
<!DOCTYPE svg PUBLIC "-//W3C//DTD SVG 1.1//EN" "http://www.w3.org/Graphics/SVG/1.1/DTD/svg11.dtd">
<svg xmlns="http://www.w3.org/2000/svg" version="1.1" viewBox="0.00 0.00 398.00 348.00">
<path fill="#111011" d="
  M 139.14 133.51
  A 0.26 0.25 -19.2 0 0 139.58 133.72
  C 150.17 122.10 162.34 111.55 174.71 101.02
  Q 195.71 83.11 218.02 67.52
  Q 234.16 56.25 251.24 47.53
  A 4.43 4.19 -76.8 0 0 252.15 46.93
  Q 254.03 45.33 255.41 44.74
  A 0.72 0.72 0.0 0 1 256.40 45.52
  C 255.93 48.16 253.69 49.75 251.31 51.81
  Q 250.19 52.77 231.68 65.35
  C 210.46 79.77 190.68 94.90 170.04 112.02
  Q 152.95 126.20 138.04 143.12
  A 4.64 4.56 -19.5 0 0 136.98 145.30
  L 131.21 176.35
  A 0.74 0.74 0.0 0 0 131.81 177.22
  C 134.64 177.71 136.44 178.15 138.94 178.23
  Q 146.24 178.47 150.06 178.82
  Q 156.52 179.41 161.18 178.79
  Q 161.87 178.70 171.90 178.43
  Q 175.82 178.33 182.58 177.62
  C 197.85 176.04 208.62 174.85 221.19 171.68
  Q 225.98 170.47 231.76 167.69
  A 0.70 0.70 0.0 0 1 232.76 168.45
  L 232.63 169.16
  A 1.28 1.26 -9.6 0 1 232.01 170.02
  Q 227.59 172.45 226.36 172.89
  Q 210.70 178.48 193.07 180.97
  Q 177.79 183.14 162.10 183.54
  Q 147.29 183.92 131.36 181.14
  A 0.79 0.79 0.0 0 0 130.45 181.75
  L 123.17 215.08
  A 2.29 2.27 -88.8 0 1 121.36 216.83
  L 120.85 216.93
  A 0.88 0.88 0.0 0 1 119.78 215.89
  L 127.40 180.97
  A 1.02 1.02 0.0 0 0 126.66 179.76
  C 121.90 178.53 115.62 176.25 116.28 170.36
  Q 116.66 166.95 118.61 162.58
  C 122.45 154.00 128.17 146.70 134.35 139.63
  A 4.41 4.38 70.0 0 0 135.39 137.38
  Q 141.92 94.44 149.05 49.27
  Q 149.43 46.88 149.77 45.41
  A 2.11 1.87 21.8 0 1 152.75 44.34
  C 154.94 45.54 154.35 50.49 153.91 52.89
  Q 139.67 130.37 139.14 133.51
  Z
  M 132.90 151.36
  A 0.57 0.57 0.0 0 0 131.89 150.90
  Q 126.70 157.33 122.70 164.98
  Q 120.53 169.14 120.34 171.66
  A 3.08 3.07 -77.6 0 0 122.32 174.77
  L 126.38 176.32
  A 1.57 1.57 0.0 0 0 128.48 175.14
  L 132.90 151.36
  Z"
/>
<path fill="#111011" d="
  M 366.20 258.81
  C 365.10 250.02 353.93 248.24 347.04 250.03
  C 340.71 251.68 337.49 259.03 342.26 264.27
  Q 343.81 265.97 350.17 268.01
  Q 364.75 272.68 364.80 272.70
  C 369.11 274.36 374.94 278.54 374.95 283.48
  Q 374.95 288.18 374.91 292.25
  A 3.74 3.65 54.4 0 1 374.74 293.36
  C 371.50 303.74 360.16 305.56 350.46 304.97
  C 340.47 304.36 331.87 299.16 329.41 289.02
  A 0.30 0.29 -13.8 0 1 329.63 288.67
  L 337.88 286.65
  A 0.30 0.29 -13.3 0 1 338.23 286.86
  Q 340.05 294.49 347.78 297.02
  C 352.79 298.66 362.68 298.66 365.65 292.86
  Q 369.64 285.06 361.72 279.97
  A 3.29 3.27 71.8 0 0 361.13 279.67
  Q 355.25 277.49 346.41 274.98
  C 343.14 274.05 339.91 272.45 337.32 270.94
  C 335.08 269.65 333.00 266.67 332.16 263.96
  Q 329.70 256.03 334.87 248.45
  A 1.98 1.76 -4.7 0 1 335.29 248.01
  L 339.77 244.67
  A 3.22 3.20 16.1 0 1 340.48 244.28
  Q 355.46 238.59 367.78 246.28
  Q 372.91 249.49 374.72 256.66
  A 0.45 0.45 0.0 0 1 374.39 257.21
  L 366.62 259.11
  A 0.34 0.34 0.0 0 1 366.20 258.81
  Z"
/>
<path fill="#111011" d="
  M 234.81 304.22
  L 239.50 243.20
  A 0.46 0.45 -88.0 0 1 239.95 242.77
  L 250.78 242.77
  A 0.85 0.83 79.2 0 1 251.56 243.31
  L 268.99 289.35
  A 0.17 0.17 0.0 0 0 269.31 289.35
  L 286.79 243.35
  A 0.89 0.89 0.0 0 1 287.62 242.78
  L 298.45 242.78
  A 0.31 0.30 -2.0 0 1 298.76 243.06
  L 303.48 304.40
  A 0.07 0.07 0.0 0 1 303.41 304.47
  L 295.39 304.47
  A 0.46 0.46 0.0 0 1 294.93 304.05
  L 291.17 255.13
  A 0.32 0.32 0.0 0 0 290.55 255.04
  L 271.94 304.03
  A 0.73 0.72 10.5 0 1 271.26 304.49
  L 266.93 304.49
  A 0.66 0.66 0.0 0 1 266.31 304.06
  L 247.60 254.65
  A 0.11 0.11 0.0 0 0 247.38 254.68
  L 243.57 304.29
  A 0.20 0.20 0.0 0 1 243.37 304.48
  L 235.05 304.48
  A 0.25 0.24 -88.9 0 1 234.81 304.22
  Z"
/>
<path fill="#111011" d="
  M 46.61 272.45
  L 71.37 303.99
  A 0.31 0.31 0.0 0 1 71.12 304.49
  L 61.14 304.49
  A 0.31 0.31 0.0 0 1 60.90 304.37
  L 38.87 276.31
  A 0.31 0.31 0.0 0 0 38.63 276.19
  L 34.03 276.19
  A 0.31 0.31 0.0 0 0 33.72 276.50
  L 33.72 304.16
  A 0.31 0.31 0.0 0 1 33.41 304.47
  L 25.38 304.47
  A 0.31 0.31 0.0 0 1 25.07 304.16
  L 25.07 243.09
  A 0.31 0.31 0.0 0 1 25.38 242.78
  L 33.40 242.78
  A 0.31 0.31 0.0 0 1 33.71 243.09
  L 33.71 268.23
  A 0.31 0.31 0.0 0 0 34.02 268.54
  L 38.75 268.54
  A 0.31 0.31 0.0 0 0 38.99 268.43
  L 60.05 242.88
  A 0.31 0.31 0.0 0 1 60.29 242.77
  L 70.09 242.77
  A 0.31 0.31 0.0 0 1 70.33 243.28
  L 46.62 272.06
  A 0.31 0.31 0.0 0 0 46.61 272.45
  Z"
/>
<rect fill="#111011" x="98.07" y="242.79" width="8.62" height="61.70" rx="0.26"/>
<path fill="#111011" d="
  M 171.94 289.37
  Q 171.95 289.37 171.97 289.37
  A 0.05 0.05 0.0 0 0 172.01 289.34
  L 189.68 243.12
  A 0.56 0.54 9.7 0 1 190.20 242.76
  L 201.04 242.76
  A 0.52 0.52 0.0 0 1 201.56 243.25
  L 206.26 304.28
  A 0.15 0.15 0.0 0 1 206.11 304.44
  L 197.92 304.44
  A 0.31 0.31 0.0 0 1 197.61 304.16
  L 193.80 254.62
  A 0.14 0.14 0.0 0 0 193.53 254.58
  L 174.74 304.03
  A 0.73 0.73 0.0 0 1 174.02 304.50
  Q 172.98 304.45 171.95 304.46
  Q 170.91 304.46 169.87 304.50
  A 0.73 0.73 0.0 0 1 169.15 304.03
  L 150.30 254.61
  A 0.14 0.14 0.0 0 0 150.03 254.65
  L 146.28 304.19
  A 0.31 0.31 0.0 0 1 145.97 304.47
  L 137.78 304.49
  A 0.15 0.15 0.0 0 1 137.63 304.33
  L 142.25 243.29
  A 0.52 0.52 0.0 0 1 142.77 242.80
  L 153.61 242.78
  A 0.56 0.54 -9.8 0 1 154.13 243.14
  L 171.86 289.34
  A 0.05 0.05 0.0 0 0 171.91 289.37
  Q 171.92 289.37 171.94 289.37
  Z"
/>
</svg>
