<?xml version="1.0" encoding="UTF-8" standalone="no"?>
<!DOCTYPE svg PUBLIC "-//W3C//DTD SVG 1.1//EN" "http://www.w3.org/Graphics/SVG/1.1/DTD/svg11.dtd">
<svg xmlns="http://www.w3.org/2000/svg" version="1.1" viewBox="0.00 0.00 180.00 180.00">
<path fill="#0f100f" d="
  M 43.16 95.48
  A 0.25 0.25 0.0 0 0 43.60 95.69
  Q 48.98 89.74 55.82 83.33
  Q 87.06 54.12 121.57 29.85
  Q 138.17 18.17 155.18 9.56
  A 0.43 0.32 8.0 0 0 155.27 9.51
  L 159.17 6.77
  A 0.77 0.77 0.0 0 1 160.39 7.42
  C 160.33 9.73 157.18 12.33 154.91 14.15
  Q 153.17 15.53 142.64 22.59
  Q 100.59 50.78 65.75 81.24
  Q 52.89 92.48 41.96 105.23
  A 4.29 4.26 -19.5 0 0 40.99 107.25
  L 35.21 138.36
  A 0.72 0.72 0.0 0 0 35.77 139.20
  Q 40.32 140.07 41.34 140.06
  Q 42.08 140.05 53.96 140.86
  Q 59.95 141.27 66.61 140.84
  Q 73.31 140.42 80.54 140.07
  Q 95.08 139.36 116.00 135.77
  Q 126.26 134.02 135.89 129.73
  A 0.63 0.63 0.0 0 1 136.76 130.44
  L 136.61 131.12
  A 1.45 1.42 81.8 0 1 135.94 132.04
  Q 132.11 134.26 130.36 134.88
  Q 118.25 139.21 104.36 141.83
  Q 101.68 142.34 89.66 143.94
  C 85.87 144.45 82.55 144.33 79.09 144.88
  Q 77.63 145.12 74.89 145.27
  Q 54.38 146.46 35.21 143.13
  A 0.64 0.64 0.0 0 0 34.48 143.62
  L 27.23 176.77
  A 2.33 2.31 81.3 0 1 26.13 178.28
  L 25.04 178.91
  A 0.87 0.87 0.0 0 1 23.76 177.97
  L 31.41 143.00
  A 1.06 1.05 13.2 0 0 30.63 141.75
  Q 27.35 140.92 24.61 139.51
  Q 19.88 137.05 20.27 132.53
  Q 20.55 129.20 22.61 124.58
  C 26.42 116.05 31.85 109.24 38.35 101.61
  A 4.45 4.44 -20.8 0 0 39.38 99.33
  Q 40.35 92.57 53.50 8.30
  Q 53.84 6.13 55.89 6.10
  A 2.37 1.95 80.9 0 1 57.91 7.89
  Q 58.66 10.83 57.98 14.49
  Q 43.89 91.11 43.16 95.48
  Z
  M 36.36 112.77
  Q 35.96 112.80 35.66 113.18
  Q 30.83 119.23 26.97 126.48
  Q 24.67 130.81 24.33 133.46
  A 3.12 3.11 -75.8 0 0 26.29 136.75
  L 30.23 138.28
  A 1.79 1.79 0.0 0 0 32.66 136.82
  Q 32.93 134.41 36.89 113.36
  A 0.50 0.50 0.0 0 0 36.36 112.77
  Z"
/>
</svg>
