<?xml version="1.0" encoding="UTF-8" standalone="no"?>
<!DOCTYPE svg PUBLIC "-//W3C//DTD SVG 1.1//EN" "http://www.w3.org/Graphics/SVG/1.1/DTD/svg11.dtd">
<svg xmlns="http://www.w3.org/2000/svg" version="1.1" viewBox="0.00 0.00 369.00 90.00">
<path fill="#111011" d="
  M 360.73 27.74
  A 0.37 0.36 75.8 0 1 360.47 28.19
  L 352.56 30.13
  A 0.27 0.26 -10.1 0 1 352.24 29.91
  C 351.23 21.87 341.87 19.62 335.12 20.57
  Q 328.55 21.50 326.53 26.77
  Q 324.74 31.48 328.31 35.30
  Q 329.96 37.06 336.17 39.02
  Q 349.89 43.35 350.80 43.70
  C 354.79 45.24 360.84 49.46 360.91 54.00
  Q 361.00 59.64 360.91 63.24
  A 3.46 3.42 54.2 0 1 360.77 64.14
  C 357.29 76.61 341.38 77.05 331.27 75.34
  Q 328.85 74.93 323.82 71.99
  Q 317.53 68.31 315.42 60.01
  A 0.28 0.28 0.0 0 1 315.62 59.67
  L 323.88 57.65
  A 0.29 0.29 0.0 0 1 324.23 57.86
  Q 326.05 65.50 333.78 68.02
  C 338.80 69.66 348.64 69.63 351.60 63.94
  Q 355.69 56.09 347.72 50.97
  A 3.33 2.94 -14.9 0 0 347.12 50.67
  Q 341.08 48.43 332.66 46.07
  C 329.37 45.14 325.77 43.44 323.32 41.93
  C 320.97 40.48 318.98 37.67 318.14 34.91
  Q 315.74 27.01 320.81 19.53
  A 2.70 2.65 89.5 0 1 321.38 18.94
  L 325.81 15.65
  A 3.11 2.96 -73.0 0 1 326.45 15.29
  Q 341.44 9.58 353.77 17.28
  Q 358.92 20.50 360.73 27.74
  Z"
/>
<path fill="#111011" d="
  M 289.48 75.38
  A 0.09 0.08 -2.9 0 1 289.39 75.47
  L 281.43 75.47
  A 0.50 0.50 0.0 0 1 280.93 75.01
  L 277.16 26.08
  A 0.30 0.30 0.0 0 0 276.58 25.99
  L 257.95 75.01
  A 0.77 0.74 9.9 0 1 257.24 75.49
  L 252.72 75.49
  A 0.48 0.47 -9.4 0 1 252.27 75.18
  L 233.30 24.92
  A 0.02 0.02 0.0 0 0 233.27 24.92
  C 233.21 24.97 233.34 27.02 233.30 27.55
  Q 232.09 43.23 229.51 75.21
  A 0.28 0.28 0.0 0 1 229.23 75.47
  L 221.03 75.47
  A 0.22 0.21 2.4 0 1 220.81 75.24
  L 225.50 14.18
  A 0.43 0.43 0.0 0 1 225.93 13.78
  L 236.79 13.78
  A 0.88 0.86 79.1 0 1 237.60 14.34
  L 254.90 60.19
  A 0.25 0.25 0.0 0 0 255.37 60.19
  L 272.73 14.50
  A 1.14 1.13 10.5 0 1 273.79 13.78
  L 284.38 13.78
  A 0.38 0.38 0.0 0 1 284.76 14.14
  L 289.48 75.38
  Z"
/>
<path fill="#111011" d="
  M 32.61 43.45
  L 57.37 74.99
  A 0.31 0.31 0.0 0 1 57.12 75.49
  L 47.14 75.49
  A 0.31 0.31 0.0 0 1 46.90 75.37
  L 24.86 47.30
  A 0.31 0.31 0.0 0 0 24.62 47.18
  L 20.03 47.18
  A 0.31 0.31 0.0 0 0 19.72 47.49
  L 19.72 75.16
  A 0.31 0.31 0.0 0 1 19.41 75.47
  L 11.38 75.47
  A 0.31 0.31 0.0 0 1 11.07 75.16
  L 11.07 14.10
  A 0.31 0.31 0.0 0 1 11.38 13.79
  L 19.40 13.79
  A 0.31 0.31 0.0 0 1 19.71 14.10
  L 19.71 39.24
  A 0.31 0.31 0.0 0 0 20.02 39.55
  L 24.75 39.55
  A 0.31 0.31 0.0 0 0 24.99 39.44
  L 46.05 13.88
  A 0.31 0.31 0.0 0 1 46.29 13.77
  L 56.09 13.77
  A 0.31 0.31 0.0 0 1 56.33 14.28
  L 32.62 43.06
  A 0.31 0.31 0.0 0 0 32.61 43.45
  Z"
/>
<rect fill="#111011" x="84.06" y="13.80" width="8.64" height="61.68" rx="0.27"/>
<path fill="#111011" d="
  M 157.94 60.37
  Q 158.02 60.37 158.06 60.27
  Q 162.63 48.27 175.69 14.08
  A 0.49 0.48 -79.3 0 1 176.14 13.77
  L 187.04 13.77
  A 0.52 0.51 -1.8 0 1 187.56 14.25
  L 192.26 75.28
  A 0.16 0.15 88.2 0 1 192.11 75.45
  L 183.96 75.45
  A 0.36 0.35 87.3 0 1 183.61 75.12
  L 179.80 25.61
  A 0.14 0.14 0.0 0 0 179.53 25.57
  L 160.74 75.02
  A 0.74 0.74 0.0 0 1 160.03 75.49
  Q 158.98 75.45 157.94 75.45
  Q 156.91 75.46 155.86 75.50
  A 0.74 0.74 0.0 0 1 155.15 75.02
  L 136.30 25.60
  A 0.14 0.14 0.0 0 0 136.03 25.64
  L 132.28 75.15
  A 0.36 0.35 -87.4 0 1 131.93 75.48
  L 123.78 75.49
  A 0.16 0.15 -88.3 0 1 123.63 75.32
  L 128.26 14.29
  A 0.52 0.51 1.7 0 1 128.78 13.80
  L 139.68 13.79
  A 0.49 0.48 79.3 0 1 140.13 14.10
  Q 153.23 48.28 157.81 60.27
  Q 157.85 60.37 157.94 60.37
  Z"
/>
</svg>
