<?xml version="1.0" encoding="iso-8859-1"?>
<!-- Uploaded to: SVG Repo, www.svgrepo.com, Generator: SVG Repo Mixer Tools -->
<svg fill="#000000" height="800px" width="800px" version="1.1" id="Layer_1" xmlns="http://www.w3.org/2000/svg" xmlns:xlink="http://www.w3.org/1999/xlink" 
	 viewBox="0 0 502.933 502.933" xml:space="preserve">
<g>
	<g>
		<path d="M341.866,173.066c-8.533-30.933-34.133-49.066-53.333-56.533c-21.333-7.467-43.733-2.133-65.067,13.867
			c-21.333-16-44.8-20.267-65.067-13.867c-19.2,7.467-44.8,25.6-53.333,56.533c-5.333,20.267-6.4,52.267,24.533,90.667
			c71.467,88.533,85.333,94.933,93.867,94.933s22.4-6.4,93.867-94.933C348.266,225.332,347.199,193.332,341.866,173.066z
			 M286.4,238.133c-19.2,23.467-48,56.533-62.933,73.6c-16-16-43.733-49.067-62.933-73.6c-10.667-13.867-22.4-34.133-17.067-53.333
			c4.267-14.933,17.067-25.6,27.733-28.8c9.6-3.2,23.467,3.2,37.333,16c4.267,4.267,9.6,6.4,14.933,6.4
			c5.333,0,10.667-2.133,14.933-6.4c13.867-12.8,27.733-19.2,37.333-16c10.667,3.2,23.467,13.867,27.733,28.8
			C308.8,203.999,297.067,224.266,286.4,238.133z"/>
	</g>
</g>
<g>
	<g>
		<path d="M496.533,467.466l-99.2-99.2c33.067-40.533,52.267-89.6,52.267-142.933c0-60.8-23.467-116.267-66.133-158.933
			C340.8,23.733,285.333,0.266,224.533,0.266S108.267,23.733,65.6,66.4c-87.467,87.467-87.467,229.333,0,316.8
			c42.667,42.667,99.2,66.133,158.933,66.133c52.267,0,102.4-18.133,142.933-51.2l98.133,98.133c4.267,4.267,9.6,6.4,14.933,6.4
			s10.667-2.133,16-5.333C505.067,488.799,505.067,475.999,496.533,467.466z M353.6,354.399
			c-34.133,34.133-80,53.333-129.067,53.333s-94.933-19.2-129.067-53.333C24,282.933,24,167.733,95.467,96.266
			c34.133-34.133,80-53.333,129.067-53.333s94.933,19.2,129.067,53.333c34.133,34.133,53.333,80,53.333,129.067
			S387.734,320.266,353.6,354.399z"/>
	</g>
</g>
</svg>