<?xml version="1.0" encoding="iso-8859-1"?>
<!-- Uploaded to: SVG Repo, www.svgrepo.com, Generator: SVG Repo Mixer Tools -->
<svg fill="#000000" height="800px" width="800px" version="1.1" id="Layer_1" xmlns="http://www.w3.org/2000/svg" xmlns:xlink="http://www.w3.org/1999/xlink" 
	 viewBox="0 0 512 512" xml:space="preserve">
<g>
	<g>
		<g>
			<path d="M256,0C114.618,0,0,114.618,0,256s114.618,256,256,256s256-114.618,256-256S397.382,0,256,0z M256,469.333
				c-117.818,0-213.333-95.515-213.333-213.333S138.182,42.667,256,42.667S469.333,138.182,469.333,256S373.818,469.333,256,469.333
				z"/>
			<path d="M256,298.667c-35.355,0-64,28.645-64,64s28.645,64,64,64s64-28.645,64-64S291.355,298.667,256,298.667z M256,384
				c-11.791,0-21.333-9.542-21.333-21.333s9.542-21.333,21.333-21.333s21.333,9.542,21.333,21.333S267.791,384,256,384z"/>
			<path d="M198.248,249.752c8.331,8.331,21.839,8.331,30.17,0c8.331-8.331,8.331-21.839,0-30.17L200.837,192l27.582-27.582
				c8.331-8.331,8.331-21.839,0-30.17s-21.839-8.331-30.17,0l-27.582,27.582l-27.582-27.582c-8.331-8.331-21.839-8.331-30.17,0
				s-8.331,21.839,0,30.17L140.497,192l-27.582,27.582c-8.331,8.331-8.331,21.839,0,30.17c8.331,8.331,21.839,8.331,30.17,0
				l27.582-27.582L198.248,249.752z"/>
			<path d="M399.085,134.248c-8.331-8.331-21.839-8.331-30.17,0l-27.582,27.582l-27.582-27.582c-8.331-8.331-21.839-8.331-30.17,0
				s-8.331,21.839,0,30.17L311.163,192l-27.582,27.582c-8.331,8.331-8.331,21.839,0,30.17c8.331,8.331,21.839,8.331,30.17,0
				l27.582-27.582l27.582,27.582c8.331,8.331,21.839,8.331,30.17,0c8.331-8.331,8.331-21.839,0-30.17L371.503,192l27.582-27.582
				C407.416,156.087,407.416,142.58,399.085,134.248z"/>
		</g>
	</g>
</g>
</svg>